<svg id="Lag_1" data-name="Lag 1" xmlns="http://www.w3.org/2000/svg" viewBox="0 0 224 212"><defs><style>.cls-1{fill:#414b5a;}.cls-2{fill:none;}</style></defs><title>facebook_logo</title><path class="cls-1" d="M119.5,35A77.5,77.5,0,1,1,42,112.5,77.59,77.59,0,0,1,119.5,35m0-3A80.5,80.5,0,1,0,200,112.5,80.5,80.5,0,0,0,119.5,32Z"/><g id="FAszra.tif"><path class="cls-2" d="M145.93,163.44H87.05V63h58.88Zm-1-63.38c-.58,0-1,0-1.36,0h-17.2c-.77,0-1.31-.09-1.3-1.1,0-3.86,0-7.72,0-11.58.1-4.22,2.08-6.51,6.22-7.32a21.68,21.68,0,0,1,3.86-.39c3.14-.06,6.28,0,9.41,0,.61,0,1,0,1-.85q0-7,0-14c0-.6-.24-.8-.83-.84-1.69-.11-3.37-.37-5.06-.39-4.39-.06-8.79-.17-13.17,0a24.56,24.56,0,0,0-11.38,3.37c-7,4.1-10.11,10.53-10.48,18.39-.19,4.14,0,8.3,0,12.45,0,2.22,0,2.22-2.29,2.22-4.62,0-9.24,0-13.85,0-.87,0-1.2.25-1.2,1.18q.06,7.58,0,15.15c0,.92.31,1.16,1.19,1.15,4.87,0,9.74,0,14.61,0,1.54,0,1.54,0,1.54,1.51v42.75c0,1.41,0,1.41,1.43,1.41h17.43c1.53,0,1.54,0,1.54-1.53q0-21.37,0-42.75c0-1.06.27-1.43,1.39-1.42,4.94.06,9.88,0,14.83,0,1,0,1.22-.38,1.33-1.25.28-2.28.64-4.55,1-6.83C144,106.35,144.46,103.29,144.92,100.06Z"/><path class="cls-1" d="M144.36,100c-.47,3.23-.91,6.28-1.35,9.34-.32,2.27-.68,4.55-1,6.83-.11.86-.37,1.25-1.34,1.24-4.94,0-9.88,0-14.82,0-1.12,0-1.4.35-1.4,1.42q0,21.38,0,42.75c0,1.52,0,1.52-1.53,1.52H105.55c-1.43,0-1.43,0-1.43-1.4q0-21.37,0-42.75c0-1.52,0-1.52-1.54-1.52-4.87,0-9.74,0-14.61,0-.88,0-1.19-.24-1.18-1.16q.06-7.58,0-15.15c0-.92.32-1.18,1.19-1.17,4.62,0,9.24,0,13.86,0,2.28,0,2.28,0,2.28-2.23,0-4.14-.15-8.3,0-12.44.36-7.86,3.44-14.29,10.47-18.39A24.61,24.61,0,0,1,126,63.48c4.38-.19,8.78-.07,13.17,0,1.69,0,3.37.28,5.06.38.58,0,.83.24.83.85,0,4.65,0,9.3,0,14,0,.79-.43.85-1,.85-3.14,0-6.28,0-9.41,0a22.65,22.65,0,0,0-3.86.39c-4.14.81-6.12,3.11-6.22,7.33-.09,3.85,0,7.72,0,11.58,0,1,.53,1.1,1.29,1.1,3.43,0,6.86,0,10.28,0H143C143.39,99.92,143.78,100,144.36,100Z"/></g></svg>
