<svg id="Lag_1" data-name="Lag 1" xmlns="http://www.w3.org/2000/svg" viewBox="0 0 229 218"><defs><style>.cls-1{fill:#414b5a;}.cls-2{fill:none;}</style></defs><title>linkedin_logo</title><path class="cls-1" d="M115.5,36A77.5,77.5,0,1,1,38,113.5,77.59,77.59,0,0,1,115.5,36m0-3A80.5,80.5,0,1,0,196,113.5,80.5,80.5,0,0,0,115.5,33Z"/><path class="cls-2" d="M75,75.84V66h88v55.44c-.07-.42-.13-.85-.21-1.27-.57-3.26-.81-6.63-1.79-9.76-2.69-8.54-8.25-14.06-17.57-15-5.83-.6-11.15.71-15.4,5-1.42,1.43-2.59,3.11-4,4.87V97H105v63h17.4c2.2.26,2.2.26,2.2-2,0-11.16,0-22.32,0-33.48a13.29,13.29,0,0,1,2.5-8.33,9.36,9.36,0,0,1,9.18-4c3.7.48,5.84,2.81,7,6.23a26.85,26.85,0,0,1,1.16,8.76c0,10.44,0,20.88,0,31.32,0,1.75,0,1.75,1.72,1.75l17.16.06a5.21,5.21,0,0,1-1.08.23c-16.19,0-32.38,0-48.56-.55H75V78.72a1.57,1.57,0,0,1,.47.92c.75,3.68,2.62,6.58,6.2,7.94A10.53,10.53,0,0,0,92.91,85.8c3.11-2.68,3.93-6.24,3.43-10.2-.53-4.23-3.59-7.9-7.33-8.72-5.26-1.15-9.75.46-12.1,4.53A40.24,40.24,0,0,0,75,75.84Zm1,84.28c.49,0,.93.06,1.36.06,5.38,0,10.76,0,16.13,0,1.26,0,1.54-.34,1.54-1.54Q95,128.51,95,98.34V97H76Z"/><path class="cls-1" d="M163,160.06,145.73,160c-1.74,0-1.74,0-1.74-1.75,0-10.41,0-20.82,0-31.22a26.41,26.41,0,0,0-1.16-8.73c-1.19-3.41-3.33-5.74-7.06-6.21a9.47,9.47,0,0,0-9.24,4A13.13,13.13,0,0,0,124,124.4c0,11.12,0,22.25,0,33.37,0,2.23,0,2.23-2.21,2.23H106V97h18v8.39c1.44-1.76,2.61-3.44,4-4.86,4.25-4.25,9.57-5.55,15.4-5,9.32,1,14.88,6.46,17.57,15,1,3.12,1.22,6.48,1.79,9.73.08.42.14.84.21,1.27Z"/><path class="cls-1" d="M75,75.84a27.68,27.68,0,0,1,1.67-4.43c2.35-4.07,6.84-5.68,12.1-4.53,3.74.82,6.8,4.49,7.33,8.72.5,4-.32,7.52-3.43,10.2a10.53,10.53,0,0,1-11.24,1.78c-3.58-1.36-5.45-4.26-6.2-7.94-.06-.31-.15-.61-.23-.92Z"/><path class="cls-1" d="M76,160.12V97H95v1.34q0,30.16,0,60.33c0,1.2-.28,1.56-1.54,1.54-5.37-.07-10.75,0-16.13,0C76.93,160.18,76.49,160.14,76,160.12Z"/></svg>
