<svg id="Lag_1" data-name="Lag 1" xmlns="http://www.w3.org/2000/svg" viewBox="0 0 229 203"><defs><style>.cls-1{fill:#414b5a;}.cls-2{fill:none;}</style></defs><title>twitter_logo</title><path class="cls-1" d="M110.5,24A77.5,77.5,0,1,1,33,101.5,77.59,77.59,0,0,1,110.5,24m0-3A80.5,80.5,0,1,0,191,101.5,80.5,80.5,0,0,0,110.5,21Z"/><g id="mGgkyM.tif"><path class="cls-2" d="M82.45,57.05H138v94.6H82.45ZM92.51,96.56c0,1.85,0,3.31,0,4.76.09,10.63.13,21.26.29,31.88.12,8,5.25,12.85,11.84,15.63,9.48,4,19.22,2.86,28.62-1,1.42-.58,3.42-2,3.54-3.14a117.28,117.28,0,0,0,.17-12.2c-4.5,1.1-8.75,2.73-13.09,3-7,.52-10.38-2.91-10.51-9.93-.17-9.25-.1-18.51-.12-27.76a7.74,7.74,0,0,1,.34-1.49h20.33V81.5H113.14V58.34H100.9a3.79,3.79,0,0,0-.25.69C99.22,69.77,94.91,78.46,84,82.48a1.69,1.69,0,0,0-1,1.12c-.07,4.25-.05,8.51-.05,13Z"/><path class="cls-1" d="M92.51,96.56H83c0-4.45,0-8.71.05-13a1.69,1.69,0,0,1,1-1.12c10.92-4,15.23-12.71,16.66-23.45a3.79,3.79,0,0,1,.25-.69h12.24V81.5h20.78V96.4H113.59a7.74,7.74,0,0,0-.34,1.49c0,9.25,0,18.51.12,27.76.13,7,3.5,10.45,10.51,9.93,4.34-.31,8.59-1.94,13.09-3a117.28,117.28,0,0,1-.17,12.2c-.12,1.18-2.12,2.56-3.54,3.14-9.4,3.81-19.14,5-28.62,1-6.59-2.78-11.72-7.59-11.84-15.63-.16-10.62-.2-21.25-.29-31.88C92.5,99.87,92.51,98.41,92.51,96.56Z"/></g></svg>
